<svg width="512" height="512" viewBox="0 0 512 512" fill="none" xmlns="http://www.w3.org/2000/svg">
  <defs>
    <linearGradient id="core" x1="105" y1="81" x2="407" y2="433" gradientUnits="userSpaceOnUse">
      <stop stop-color="#FFC14D"/>
      <stop offset=".38" stop-color="#F97316"/>
      <stop offset="1" stop-color="#E11D48"/>
    </linearGradient>
    <linearGradient id="shine" x1="174" y1="101" x2="345" y2="390" gradientUnits="userSpaceOnUse">
      <stop stop-color="white" stop-opacity=".75"/>
      <stop offset="1" stop-color="white" stop-opacity="0"/>
    </linearGradient>
    <filter id="glow" x="20" y="20" width="472" height="472" filterUnits="userSpaceOnUse" color-interpolation-filters="sRGB">
      <feFlood flood-opacity="0" result="BackgroundImageFix"/>
      <feGaussianBlur in="SourceAlpha" stdDeviation="16"/>
      <feComposite in2="SourceAlpha" operator="out"/>
      <feColorMatrix values="0 0 0 0 0.98 0 0 0 0 0.2 0 0 0 0 0.08 0 0 0 .6 0"/>
      <feBlend in2="BackgroundImageFix" result="effect1_dropShadow"/>
      <feBlend in="SourceGraphic" in2="effect1_dropShadow" result="shape"/>
    </filter>
  </defs>
  <g filter="url(#glow)">
    <path d="M256 59C311 105 365 116 409 119V256C409 353 345 420 256 455C167 420 103 353 103 256V119C147 116 201 105 256 59Z" fill="url(#core)"/>
    <path d="M256 83C302 120 346 136 384 141V252C384 328 335 385 256 420C177 385 128 328 128 252V141C166 136 210 120 256 83Z" fill="#17121B" fill-opacity=".82"/>
    <path d="M256 103C294 133 327 148 358 153V242C358 299 324 349 256 383C188 349 154 299 154 242V153C185 148 218 133 256 103Z" fill="url(#shine)" fill-opacity=".25"/>
    <path d="M180 259L228 307L337 196" stroke="url(#core)" stroke-width="31" stroke-linecap="round" stroke-linejoin="round"/>
    <path d="M365 107C394 144 409 188 409 239" stroke="#FFC14D" stroke-width="13" stroke-linecap="round"/>
    <circle cx="413" cy="258" r="15" fill="#FFC14D"/>
  </g>
</svg>
